<?xml version="1.0" standalone="no"?>
<!DOCTYPE svg PUBLIC "-//W3C//DTD SVG 1.1//EN" "http://www.w3.org/Graphics/SVG/1.1/DTD/svg11.dtd" >
<svg xmlns="http://www.w3.org/2000/svg">
<metadata>
This is a custom SVG webfont generated by Font Squirrel.
Copyright   : 2003  wwwminimlcom  design by craig kroeger
</metadata>
<defs>
<font id="monooge0556Regular" horiz-adv-x="1536" >
<font-face units-per-em="2048" ascent="1638" descent="-410" />
<missing-glyph horiz-adv-x="500" />
<glyph unicode=" " />
<glyph unicode="!" d="M512 0v256h256v-256h-256zM512 512v768h256v-768h-256z" />
<glyph unicode="&#x22;" d="M256 768v512h256v-512h-256zM768 768v512h256v-512h-256z" />
<glyph unicode="#" d="M0 256v256h256v256h-256v256h256v256h256v-256h256v256h256v-256h256v-256h-256v-256h256v-256h-256v-256h-256v256h-256v-256h-256v256h-256zM512 512h256v256h-256v-256z" />
<glyph unicode="$" d="M256 0v256h512v256h-512v768h256v256h256v-256h256v-256h-512v-256h512v-768h-256v-256h-256v256h-256z" />
<glyph unicode="%" d="M256 0v512h256v256h256v512h256v-512h-256v-256h-256v-512h-256zM256 1024v256h256v-256h-256zM768 0v256h256v-256h-256z" />
<glyph unicode="&#x26;" d="M0 0v768h256v512h768v-512h-256v-256h256v-256h-256v-256h-768zM256 256h502v256h-502v-256zM512 768h246v256h-246v-256z" />
<glyph unicode="'" d="M512 768v512h256v-512h-256z" />
<glyph unicode="(" d="M512 256v768h256v256h256v-256h-256v-768h256v-256h-256v256h-256z" />
<glyph unicode=")" d="M256 0v256h256v768h-256v256h256v-256h256v-768h-256v-256h-256z" />
<glyph unicode="*" d="M0 512v256h512v256h-256v256h256v-256h256v256h256v-256h-256v-256h512v-256h-512v-256h256v-256h-256v256h-256v-256h-256v256h256v256h-512z" />
<glyph unicode="+" d="M256 512v256h256v256h256v-256h256v-256h-256v-256h-256v256h-256z" />
<glyph unicode="," d="M512 256h256v-512h-256v512z" />
<glyph unicode="-" d="M256 512v256h768v-256h-768z" />
<glyph unicode="." d="M512 0v256h256v-256h-256z" />
<glyph unicode="/" d="M256 0v512h256v256h256v512h256v-512h-256v-256h-256v-512h-256z" />
<glyph unicode="0" d="M256 0v1280h768v-1280h-768zM512 256h256v768h-256v-768z" />
<glyph unicode="1" d="M256 0v256h256v768h-256v256h512v-1024h256v-256h-768z" />
<glyph unicode="2" d="M256 0v768h512v256h-512v256h768v-768h-512v-256h512v-256h-768z" />
<glyph unicode="3" d="M256 0v256h512v256h-256v256h256v256h-512v256h768v-1280h-768z" />
<glyph unicode="4" d="M256 512v768h256v-512h256v512h256v-1280h-256v512h-512z" />
<glyph unicode="5" d="M256 0v256h512v256h-512v768h768v-256h-512v-256h512v-768h-768z" />
<glyph unicode="6" d="M256 0v1280h768v-256h-512v-256h512v-768h-768zM512 256h256v256h-256v-256z" />
<glyph unicode="7" d="M256 1024v256h768v-1280h-256v1024h-512z" />
<glyph unicode="8" d="M256 0v1280h768v-1280h-768zM512 256h256v256h-256v-256zM512 768h256v256h-256v-256z" />
<glyph unicode="9" d="M256 0v256h512v256h-512v768h768v-1280h-768zM512 768h256v256h-256v-256z" />
<glyph unicode=":" d="M512 0v256h256v-256h-256zM512 768v256h256v-256h-256z" />
<glyph unicode=";" d="M512 -256v512h256v-512h-256zM512 768v256h256v-256h-256z" />
<glyph unicode="&#x3c;" d="M256 512v256h256v256h256v256h256v-256h-256v-256h-256v-256h256v-256h256v-256h-256v256h-256v256h-256z" />
<glyph unicode="=" d="M256 256v256h768v-256h-768zM256 768v256h768v-256h-768z" />
<glyph unicode="&#x3e;" d="M256 0v256h256v256h256v256h-256v256h-256v256h256v-256h256v-256h256v-256h-256v-256h-256v-256h-256z" />
<glyph unicode="?" d="M256 1024v256h768v-768h-512v256h256v256h-512zM512 0v256h256v-256h-256z" />
<glyph unicode="@" d="M256 0v1280h768v-768h-256v512h-256v-768h512v-256h-768z" />
<glyph unicode="A" d="M256 0v1280h768v-1280h-256v512h-256v-512h-256zM512 768h256v256h-256v-256z" />
<glyph unicode="B" d="M256 0v1280h768v-512h-246v-256h246v-512h-768zM512 256h256v256h-256v-256zM512 768h256v256h-256v-256z" />
<glyph unicode="C" d="M256 0v1280h768v-256h-512v-768h512v-256h-768z" />
<glyph unicode="D" d="M256 0v1280h512v-256h256v-768h-256v-256h-512zM512 266h256v748h-256v-748z" />
<glyph unicode="E" d="M256 0v1280h768v-256h-512v-256h256v-256h-256v-256h512v-256h-768z" />
<glyph unicode="F" d="M256 0v1280h768v-256h-512v-256h256v-256h-256v-512h-256z" />
<glyph unicode="G" d="M256 0v1280h768v-256h-512v-768h256v512h256v-768h-768z" />
<glyph unicode="H" d="M256 0v1280h256v-512h256v512h256v-1280h-256v512h-256v-512h-256z" />
<glyph unicode="I" d="M512 0v1280h256v-1280h-256z" />
<glyph unicode="J" d="M256 0v256h512v1024h256v-1280h-768z" />
<glyph unicode="K" d="M256 0v1280h256v-512h256v512h256v-512h-256v-256h256v-512h-256v512h-256v-512h-256z" />
<glyph unicode="L" d="M256 0v1280h256v-1024h512v-256h-768z" />
<glyph unicode="M" d="M0 0v1280h1280v-1280h-256v1024h-256v-1024h-256v1024h-256v-1024h-256z" />
<glyph unicode="N" d="M256 0v1280h768v-1280h-256v1024h-256v-1024h-256z" />
<glyph unicode="O" d="M256 0v1280h768v-1280h-768zM512 256h256v768h-256v-768z" />
<glyph unicode="P" d="M256 0v1280h768v-768h-512v-512h-256zM512 768h256v256h-256v-256z" />
<glyph unicode="Q" d="M256 0v1280h768v-1280h-256v-256h-256v256h-256zM512 256h256v768h-256v-768z" />
<glyph unicode="R" d="M256 0v1280h768v-512h-246v-256h246v-512h-256v512h-256v-512h-256zM512 768h256v256h-256v-256z" />
<glyph unicode="S" d="M256 0v256h512v256h-512v768h768v-256h-512v-256h512v-768h-768z" />
<glyph unicode="T" d="M256 1024v256h768v-256h-256v-1024h-256v1024h-256z" />
<glyph unicode="U" d="M256 0v1280h256v-1024h256v1024h256v-1280h-768z" />
<glyph unicode="V" d="M256 256v1024h256v-1024h256v1024h256v-1024h-256v-256h-256v256h-256z" />
<glyph unicode="W" d="M0 0v1280h256v-1024h256v1024h256v-1024h256v1024h256v-1280h-1280z" />
<glyph unicode="X" d="M256 0v512h256v256h-256v512h256v-512h256v512h256v-512h-256v-256h256v-512h-256v512h-256v-512h-256z" />
<glyph unicode="Y" d="M256 512v768h256v-512h256v512h256v-768h-256v-512h-256v512h-256z" />
<glyph unicode="Z" d="M256 0v512h256v256h256v256h-512v256h768v-512h-256v-256h-256v-256h512v-256h-768z" />
<glyph unicode="[" d="M512 0v1280h512v-256h-256v-768h256v-256h-512z" />
<glyph unicode="\" d="M256 768v512h256v-512h256v-256h256v-512h-256v512h-256v256h-256z" />
<glyph unicode="]" d="M256 0v256h256v768h-256v256h512v-1280h-512z" />
<glyph unicode="^" d="M256 768v256h256v256h256v-256h256v-256h-256v256h-256v-256h-256z" />
<glyph unicode="_" d="M256 0v256h768v-256h-768z" />
<glyph unicode="`" d="M256 1024v256h256v-256h256v-256h-256v256h-256z" />
<glyph unicode="a" d="M256 0v768h256v256h512v-1024h-768zM512 266h256v492h-256v-492z" />
<glyph unicode="b" d="M256 0v1280h256v-256h512v-1024h-768zM512 256h256v512h-256v-512z" />
<glyph unicode="c" d="M256 0v1024h768v-256h-512v-512h512v-256h-768z" />
<glyph unicode="d" d="M256 0v1024h512v256h256v-1280h-768zM512 256h256v512h-256v-512z" />
<glyph unicode="e" d="M256 0v1024h768v-512h-256v-256h256v-256h-768zM512 512h246v256h-246v-256z" />
<glyph unicode="f" d="M256 512v256h256v512h512v-256h-256v-256h256v-256h-256v-512h-256v512h-256z" />
<glyph unicode="g" d="M256 0v1024h768v-1536h-768v256h512v256h-512zM512 256h256v512h-256v-512z" />
<glyph unicode="h" d="M256 0v1280h256v-256h512v-1024h-256v768h-256v-768h-256z" />
<glyph unicode="i" d="M512 0v768h256v-768h-256zM512 1024v256h256v-256h-256z" />
<glyph unicode="j" d="M256 -256h256v1024h256v-1280h-512v256zM512 1024v256h256v-256h-256z" />
<glyph unicode="k" d="M256 0v1280h256v-512h256v256h256v-256h-256v-256h256v-512h-256v512h-256v-512h-256z" />
<glyph unicode="l" d="M512 0v1280h256v-1280h-256z" />
<glyph unicode="m" d="M0 0v1024h1280v-1024h-256v768h-256v-768h-256v768h-256v-768h-256z" />
<glyph unicode="n" d="M256 0v1024h768v-1024h-256v768h-256v-768h-256z" />
<glyph unicode="o" d="M256 0v1024h768v-1024h-768zM512 256h256v512h-256v-512z" />
<glyph unicode="p" d="M256 -512v1536h768v-1024h-512v-512h-256zM512 256h256v512h-256v-512z" />
<glyph unicode="q" d="M256 0v1024h768v-1536h-256v512h-512zM512 256h256v512h-256v-512z" />
<glyph unicode="r" d="M256 0v1024h768v-256h-512v-768h-256z" />
<glyph unicode="s" d="M256 0v256h256v768h512v-256h-256v-768h-512z" />
<glyph unicode="t" d="M256 768v256h256v256h256v-256h256v-256h-256v-768h-256v768h-256z" />
<glyph unicode="u" d="M256 0v1024h256v-768h256v768h256v-1024h-768z" />
<glyph unicode="v" d="M256 256v768h256v-768h256v768h256v-768h-256v-256h-256v256h-256z" />
<glyph unicode="w" d="M0 0v1024h256v-768h256v768h256v-768h256v768h256v-1024h-1280z" />
<glyph unicode="x" d="M256 0v256h256v512h-256v256h256v-256h256v256h256v-256h-256v-512h256v-256h-256v256h-256v-256h-256z" />
<glyph unicode="y" d="M256 0v1024h256v-768h256v768h256v-1536h-768v256h512v256h-512z" />
<glyph unicode="z" d="M256 0v256h256v256h256v256h-512v256h768v-512h-256v-256h256v-256h-768z" />
<glyph unicode="{" d="M256 512v256h256v512h512v-256h-256v-256h-256v-256h256v-256h256v-256h-512v512h-256z" />
<glyph unicode="|" d="M512 -256v1792h256v-1792h-256z" />
<glyph unicode="}" d="M256 0v256h256v256h256v256h-256v256h-256v256h512v-512h256v-256h-256v-512h-512z" />
<glyph unicode="~" d="M0 768v256h256v256h256v-256h256v256h256v-256h-256v-256h-256v256h-256v-256h-256z" />
<glyph unicode="&#xa0;" />
<glyph unicode="&#xa1;" d="M512 0v768h256v-768h-256zM512 1024v256h256v-256h-256z" />
<glyph unicode="&#xa2;" d="M256 0v1024h256v256h256v-256h256v-256h-512v-512h512v-256h-256v-256h-256v256h-256z" />
<glyph unicode="&#xa3;" d="M0 0v256h256v256h-256v256h256v512h512v-256h-256v-256h256v-256h-256v-256h512v-256h-1024z" />
<glyph unicode="&#xa4;" d="M0 512v256h256v512h768v-256h-512v-256h256v-256h-256v-256h512v-256h-768v512h-256z" />
<glyph unicode="&#xa5;" d="M256 256v256h256v256h-256v512h256v-512h256v512h256v-512h-256v-256h256v-256h-256v-256h-256v256h-256z" />
<glyph unicode="&#xa6;" d="M512 0v512h256v-512h-256zM512 768v512h256v-512h-256z" />
<glyph unicode="&#xa7;" d="M256 0v1280h768v-256h-512v-256h512v-1280h-768v256h512v256h-512zM512 256h256v256h-256v-256z" />
<glyph unicode="&#xa8;" d="M256 1024v256h256v-256h-256zM768 1024v256h256v-256h-256z" />
<glyph unicode="&#xa9;" d="M0 256v768h256v256h512v-256h256v-768h-256v-256h-512v256h-256zM256 293l512 -27v246h-256v256h256v246h-512v-721z" />
<glyph unicode="&#xaa;" d="M256 0v256h768v-256h-768zM256 512v512h256v256h512v-768h-768zM512 768h256v246h-256v-246z" />
<glyph unicode="&#xab;" d="M0 512v256h256v256h256v-256h-256v-256h256v-256h-256v256h-256zM768 512v256h256v256h256v-256h-256v-256h256v-256h-256v256h-256z" />
<glyph unicode="&#xac;" d="M0 512v256h1024v-512h-256v256h-768z" />
<glyph unicode="&#xad;" d="M256 512v256h768v-256h-768z" />
<glyph unicode="&#x2212;" d="M256 512v256h768v-256h-768z" />
<glyph unicode="&#xae;" d="M0 256v768h256v256h512v-256h256v-768h-256v-256h-512v256h-256zM256 266h256v502h256v246h-512v-748z" />
<glyph unicode="&#xaf;" d="M0 1024v256h768v-256h-768z" />
<glyph unicode="&#x2c9;" d="M0 1024v256h768v-256h-768z" />
<glyph unicode="&#xb0;" d="M256 512v768h768v-768h-768zM512 768h256v256h-256v-256z" />
<glyph unicode="&#xb1;" d="M256 0v256h256v256h-256v256h256v256h256v-256h256v-256h-256v-256h256v-256h-768z" />
<glyph unicode="&#xb2;" d="M256 256v256h256v256h256v256h-512v256h512v-256h256v-256h-256v-256h256v-256h-768z" />
<glyph unicode="&#xb3;" d="M256 256v256h512v256h-256v256h-256v256h512v-256h256v-512h-256v-256h-512z" />
<glyph unicode="&#xb4;" d="M256 768v256h256v256h256v-256h-256v-256h-256z" />
<glyph unicode="&#xb5;" d="M0 -256v1280h256v-768h256v768h256v-768h256v-256h-256v256h-256v-256h-256v-256h-256z" />
<glyph unicode="&#x3bc;" d="M0 -256v1280h256v-768h256v768h256v-768h256v-256h-256v256h-256v-256h-256v-256h-256z" />
<glyph unicode="&#xb6;" d="M0 512v768h1280v-1280h-256v512h-256v-512h-256v512h-512zM266 768h246v256h-246v-256zM768 768h256v256h-256v-256z" />
<glyph unicode="&#xb7;" d="M512 512v256h256v-256h-256z" />
<glyph unicode="&#x2219;" d="M512 512v256h256v-256h-256z" />
<glyph unicode="&#xb8;" d="M0 -256h256v256h256v-256h-256v-256h-256v256z" />
<glyph unicode="&#xb9;" d="M512 256v1024h256v-1024h-256z" />
<glyph unicode="&#xba;" d="M256 0v256h768v-256h-768zM256 512v768h768v-768h-768zM512 768h256v256h-256v-256z" />
<glyph unicode="&#xbb;" d="M0 256v256h256v256h-256v256h256v-256h256v-256h-256v-256h-256zM768 256v256h256v256h-256v256h256v-256h256v-256h-256v-256h-256z" />
<glyph unicode="&#xbc;" />
<glyph unicode="&#xbd;" />
<glyph unicode="&#xbe;" horiz-adv-x="4608" d="M3328 512v768h256v-512h256v512h256v-1280h-256v512h-512zM1792 0v512h256v256h256v512h256v-512h-256v-256h-256v-512h-256zM256 0v256h512v256h-256v256h256v256h-512v256h768v-1280h-768z" />
<glyph unicode="&#xbf;" d="M256 0v768h512v-256h-256v-256h512v-256h-768zM512 1024v256h256v-256h-256z" />
<glyph unicode="&#xc0;" d="M256 0v1280h768v-1280h-256v512h-256v-512h-256zM256 1792v256h256v-256h256v-256h-256v256h-256zM512 768h256v256h-256v-256z" />
<glyph unicode="&#xc1;" d="M256 0v1280h768v-1280h-256v512h-256v-512h-256zM512 768h256v256h-256v-256zM512 1536v256h256v256h256v-256h-256v-256h-256z" />
<glyph unicode="&#xc2;" d="M256 0v1280h768v-1280h-256v512h-256v-512h-256zM256 1536v256h256v256h256v-256h256v-256h-256v256h-256v-256h-256zM512 768h256v256h-256v-256z" />
<glyph unicode="&#xc3;" d="M256 0v1280h768v-1280h-256v512h-256v-512h-256zM256 1536v256h256v256h256v-256h256v256h256v-256h-256v-256h-256v256h-256v-256h-256zM512 768h256v256h-256v-256z" />
<glyph unicode="&#xc4;" d="M256 0v1280h768v-1280h-256v512h-256v-512h-256zM256 1536v256h256v-256h-256zM512 768h256v256h-256v-256zM768 1536v256h256v-256h-256z" />
<glyph unicode="&#xc5;" d="M256 0v1280l256 -2v258h-256v256h256v256h256v-256h256v-256h-256v-256h256v-1280h-256v512h-256v-512h-256zM512 768h256v256h-256v-256zM512 1546h256v236h-256v-236z" />
<glyph unicode="&#xc6;" d="M0 0v1280h1024v-256h-256v-256h256v-256h-256v-256h256v-256h-512v512h-256v-512h-256zM256 768h256v256h-256v-256z" />
<glyph unicode="&#xc7;" d="M256 0v1280h768v-256h-512v-768h512v-256h-256v-512h-512v256h256v256h-256z" />
<glyph unicode="&#xc8;" d="M256 0v1280h768v-256h-512v-256h256v-256h-256v-256h512v-256h-768zM256 1792v256h256v-256h256v-256h-256v256h-256z" />
<glyph unicode="&#xc9;" d="M256 0v1280h768v-256h-512v-256h256v-256h-256v-256h512v-256h-768zM512 1536v256h256v256h256v-256h-256v-256h-256z" />
<glyph unicode="&#xca;" d="M256 0v1280h768v-256h-512v-256h256v-256h-256v-256h512v-256h-768zM256 1536v256h256v256h256v-256h256v-256h-256v256h-256v-256h-256z" />
<glyph unicode="&#xcb;" d="M256 0v1280h768v-256h-512v-256h256v-256h-256v-256h512v-256h-768zM256 1536v256h256v-256h-256zM768 1536v256h256v-256h-256z" />
<glyph unicode="&#xcc;" d="M256 1792v256h256v-256h256v-256h-256v256h-256zM512 0v1280h256v-1280h-256z" />
<glyph unicode="&#xcd;" d="M512 0v1280h256v-1280h-256zM512 1536v256h256v256h256v-256h-256v-256h-256z" />
<glyph unicode="&#xce;" d="M256 1536v256h256v256h256v-256h256v-256h-256v256h-256v-256h-256zM512 0v1280h256v-1280h-256z" />
<glyph unicode="&#xcf;" d="M256 1536v256h256v-256h-256zM512 0v1280h256v-1280h-256zM768 1536v256h256v-256h-256z" />
<glyph unicode="&#xd0;" d="M0 512v256h256v512h512v-256h256v-768h-256v-256h-512v512h-256zM512 266h256v748h-256v-748z" />
<glyph unicode="&#xd1;" d="M256 0v1280h768v-1280h-256v1024h-256v-1024h-256zM256 1536v256h256v256h256v-256h256v256h256v-256h-256v-256h-256v256h-256v-256h-256z" />
<glyph unicode="&#xd2;" d="M256 0v1280h768v-1280h-768zM256 1792v256h256v-256h256v-256h-256v256h-256zM512 256h256v768h-256v-768z" />
<glyph unicode="&#xd3;" d="M256 0v1280h768v-1280h-768zM512 256h256v768h-256v-768zM512 1536v256h256v256h256v-256h-256v-256h-256z" />
<glyph unicode="&#xd4;" d="M256 0v1280h768v-1280h-768zM256 1536v256h256v256h256v-256h256v-256h-256v256h-256v-256h-256zM512 256h256v768h-256v-768z" />
<glyph unicode="&#xd5;" d="M256 0v1280h768v-1280h-768zM256 1536v256h256v256h256v-256h256v256h256v-256h-256v-256h-256v256h-256v-256h-256zM512 256h256v768h-256v-768z" />
<glyph unicode="&#xd6;" d="M256 0v1280h768v-1280h-768zM256 1536v256h256v-256h-256zM512 256h256v768h-256v-768zM768 1536v256h256v-256h-256z" />
<glyph unicode="&#xd7;" d="M256 256v256h256v256h-256v256h256v-256h256v256h256v-256h-256v-256h256v-256h-256v256h-256v-256h-256z" />
<glyph unicode="&#xd8;" d="M0 0v1280h1024v-1280h-1024zM256 768h256v-512h256v512h-256v256h-256v-256z" />
<glyph unicode="&#xd9;" d="M256 0v1280h256v-1024h256v1024h256v-1280h-768zM256 1792v256h256v-256h256v-256h-256v256h-256z" />
<glyph unicode="&#xda;" d="M256 0v1280h256v-1024h256v1024h256v-1280h-768zM512 1536v256h256v256h256v-256h-256v-256h-256z" />
<glyph unicode="&#xdb;" d="M256 0v1280h256v-1024h256v1024h256v-1280h-768zM256 1536v256h256v256h256v-256h256v-256h-256v256h-256v-256h-256z" />
<glyph unicode="&#xdc;" d="M256 0v1280h256v-1024h256v1024h256v-1280h-768zM256 1536v256h256v-256h-256zM768 1536v256h256v-256h-256z" />
<glyph unicode="&#xdd;" d="M256 512v768h256v-512h256v512h256v-768h-256v-512h-256v512h-256zM512 1536v256h256v256h256v-256h-256v-256h-256z" />
<glyph unicode="&#xde;" d="M256 0v1536h256v-254h512v-1024h-512v-258h-256zM512 514h256v512h-256v-512z" />
<glyph unicode="&#xdf;" d="M0 -256v1536h1024v-512h-256v-256h256v-512h-512v256h256v256h-256v256h256v256h-512v-1280h-256z" />
<glyph unicode="&#xe0;" d="M256 0v768h256v256h512v-1024h-768zM256 1536v256h256v-256h256v-256h-256v256h-256zM512 266h256v492h-256v-492z" />
<glyph unicode="&#xe1;" d="M256 0v768h256v256h512v-1024h-768zM512 266h256v492h-256v-492zM512 1280v256h256v256h256v-256h-256v-256h-256z" />
<glyph unicode="&#xe2;" d="M256 0v768h256v256h512v-1024h-768zM256 1280v256h256v256h256v-256h256v-256h-256v256h-256v-256h-256zM512 266h256v492h-256v-492z" />
<glyph unicode="&#xe3;" d="M256 0v768h256v256h512v-1024h-768zM256 1280v256h256v256h256v-256h256v256h256v-256h-256v-256h-256v256h-256v-256h-256zM512 266h256v492h-256v-492z" />
<glyph unicode="&#xe4;" d="M256 0v768h256v256h512v-1024h-768zM256 1280v256h256v-256h-256zM512 266h256v492h-256v-492zM768 1280v256h256v-256h-256z" />
<glyph unicode="&#xe5;" d="M256 0v768h256v512h-256v256h256v256h256v-256h256v-256h-256v-256h256v-1024h-768zM512 266h256v492h-256v-492zM512 1290h256v236h-256v-236z" />
<glyph unicode="&#xe6;" d="M0 0v768h256v256h1024v-512h-256v-256h256v-256h-1280zM256 266h256v492h-256v-492zM768 512h246v256h-246v-256z" />
<glyph unicode="&#xe7;" d="M256 0v1024h768v-256h-512v-512h512v-256h-256v-512h-512v256h256v256h-256z" />
<glyph unicode="&#xe8;" d="M256 0v1024h768v-512h-256v-256h256v-256h-768zM256 1536v256h256v-256h256v-256h-256v256h-256zM512 512h246v256h-246v-256z" />
<glyph unicode="&#xe9;" d="M256 0v1024h768v-512h-256v-256h256v-256h-768zM512 512h246v256h-246v-256zM512 1280v256h256v256h256v-256h-256v-256h-256z" />
<glyph unicode="&#xea;" d="M256 0v1024h768v-512h-256v-256h256v-256h-768zM256 1280v256h256v256h256v-256h256v-256h-256v256h-256v-256h-256zM512 512h246v256h-246v-256z" />
<glyph unicode="&#xeb;" d="M256 0v1024h768v-512h-256v-256h256v-256h-768zM256 1280v256h256v-256h-256zM512 512h246v256h-246v-256zM768 1280v256h256v-256h-256z" />
<glyph unicode="&#xec;" d="M256 1536v256h256v-256h256v-256h-256v256h-256zM512 0v1024h256v-1024h-256z" />
<glyph unicode="&#xed;" d="M512 0v1024h256v-1024h-256zM512 1280v256h256v256h256v-256h-256v-256h-256z" />
<glyph unicode="&#xee;" d="M256 1280v256h256v256h256v-256h256v-256h-256v256h-256v-256h-256zM512 0v1024h256v-1024h-256z" />
<glyph unicode="&#xef;" d="M256 1280v256h256v-256h-256zM512 0v1024h256v-1024h-256zM768 1280v256h256v-256h-256z" />
<glyph unicode="&#xf0;" d="M256 0v512h256v256h256v256h-256v256h256v-256h256v256h256v-256h-256v-1024h-768zM512 266h256v236h-256v-236z" />
<glyph unicode="&#xf1;" d="M256 0v1024h768v-1024h-256v768h-256v-768h-256zM256 1280v256h256v256h256v-256h256v256h256v-256h-256v-256h-256v256h-256v-256h-256z" />
<glyph unicode="&#xf2;" d="M256 0v1024h768v-1024h-768zM256 1536v256h256v-256h256v-256h-256v256h-256zM512 256h256v512h-256v-512z" />
<glyph unicode="&#xf3;" d="M256 0v1024h768v-1024h-768zM512 256h256v512h-256v-512zM512 1280v256h256v256h256v-256h-256v-256h-256z" />
<glyph unicode="&#xf4;" d="M256 0v1024h768v-1024h-768zM256 1280v256h256v256h256v-256h256v-256h-256v256h-256v-256h-256zM512 256h256v512h-256v-512z" />
<glyph unicode="&#xf5;" d="M256 0v1024h768v-1024h-768zM256 1280v256h256v256h256v-256h256v256h256v-256h-256v-256h-256v256h-256v-256h-256zM512 256h256v512h-256v-512z" />
<glyph unicode="&#xf6;" d="M256 0v1024h768v-1024h-768zM256 1280v256h256v-256h-256zM512 256h256v512h-256v-512zM768 1280v256h256v-256h-256z" />
<glyph unicode="&#xf7;" d="M256 512v256h768v-256h-768zM512 0v256h256v-256h-256zM512 1024v256h256v-256h-256z" />
<glyph unicode="&#xf8;" d="M0 0v1024h1024v-1024h-1024zM256 512h256v-256h256v256h-256v256h-256v-256z" />
<glyph unicode="&#xf9;" d="M256 0v1024h256v-768h256v768h256v-1024h-768zM256 1536v256h256v-256h256v-256h-256v256h-256z" />
<glyph unicode="&#xfa;" d="M256 0v1024h256v-768h256v768h256v-1024h-768zM512 1280v256h256v256h256v-256h-256v-256h-256z" />
<glyph unicode="&#xfb;" d="M256 0v1024h256v-768h256v768h256v-1024h-768zM256 1280v256h256v256h256v-256h256v-256h-256v256h-256v-256h-256z" />
<glyph unicode="&#xfc;" d="M256 0v1024h256v-768h256v768h256v-1024h-768zM256 1280v256h256v-256h-256zM768 1280v256h256v-256h-256z" />
<glyph unicode="&#xfd;" d="M256 0v1024h256v-768h256v768h256v-1536h-768v256h512v256h-512zM512 1280v256h256v256h256v-256h-256v-256h-256z" />
<glyph unicode="&#xfe;" d="M256 -258v1536h256v-254h512v-1024h-512v-258h-256zM512 256h256v512h-256v-512z" />
<glyph unicode="&#xff;" d="M256 0v1024h256v-768h256v768h256v-1536h-768v256h512v256h-512zM256 1280v256h256v-256h-256zM768 1280v256h256v-256h-256z" />
<glyph unicode="&#x152;" d="M0 0v1280h1024v-256h-256v-256h256v-256h-256v-256h256v-256h-1024zM256 256h256v768h-256v-768z" />
<glyph unicode="&#x153;" d="M0 0v1024h1280v-512h-256v-256h256v-256h-1280zM256 256h256v512h-256v-512zM768 512h246v256h-246v-256z" />
<glyph unicode="&#x178;" d="M256 512v768h256v-512h256v512h256v-768h-256v-512h-256v512h-256zM256 1536v256h256v-256h-256zM768 1536v256h256v-256h-256z" />
<glyph unicode="&#x2c6;" d="M-6 768v256h256v256h256v-256h256v-256h-256v256h-256v-256h-256z" />
<glyph unicode="&#x2dc;" d="M0 512v256h256v256h256v-256h256v256h256v-256h-256v-256h-256v256h-256v-256h-256z" />
<glyph unicode="&#x2000;" horiz-adv-x="1024" />
<glyph unicode="&#x2001;" horiz-adv-x="2048" />
<glyph unicode="&#x2002;" horiz-adv-x="1024" />
<glyph unicode="&#x2003;" horiz-adv-x="2048" />
<glyph unicode="&#x2004;" horiz-adv-x="681" />
<glyph unicode="&#x2005;" horiz-adv-x="512" />
<glyph unicode="&#x2006;" horiz-adv-x="339" />
<glyph unicode="&#x2007;" horiz-adv-x="339" />
<glyph unicode="&#x2008;" horiz-adv-x="256" />
<glyph unicode="&#x2009;" horiz-adv-x="409" />
<glyph unicode="&#x200a;" horiz-adv-x="112" />
<glyph unicode="&#x2010;" d="M256 512v256h768v-256h-768z" />
<glyph unicode="&#x2011;" d="M256 512v256h768v-256h-768z" />
<glyph unicode="&#x2012;" d="M256 512v256h768v-256h-768z" />
<glyph unicode="&#x2013;" d="M256 512v256h768v-256h-768z" />
<glyph unicode="&#x2014;" d="M0 512v256h1024v-256h-1024z" />
<glyph unicode="&#x2018;" d="M256 768v512h256v-512h-256z" />
<glyph unicode="&#x2019;" d="M768 768v512h256v-512h-256z" />
<glyph unicode="&#x201a;" d="M256 -256h256v512h256v-512h-256v-256h-256v256z" />
<glyph unicode="&#x201c;" d="M256 768v512h256v-512h-256zM768 768v512h256v-512h-256z" />
<glyph unicode="&#x201d;" d="M256 768v512h256v-512h-256zM768 768v512h256v-512h-256z" />
<glyph unicode="&#x201e;" d="M0 -256h256v512h256v-512h256v512h256v-512h-256v-256h-256v256h-256v-256h-256v256z" />
<glyph unicode="&#x2022;" d="M512 512v256h256v-256h-256z" />
<glyph unicode="&#x2026;" d="M0 0v256h256v-256h-256zM512 0v256h256v-256h-256zM1024 0v256h256v-256h-256z" />
<glyph unicode="&#x202f;" horiz-adv-x="409" />
<glyph unicode="&#x2039;" d="M256 512v256h256v256h256v-256h-256v-256h256v-256h-256v256h-256z" />
<glyph unicode="&#x203a;" d="M512 256v256h256v256h-256v256h256v-256h256v-256h-256v-256h-256z" />
<glyph unicode="&#x2044;" d="M256 0v512h256v256h256v512h256v-512h-256v-256h-256v-512h-256z" />
<glyph unicode="&#x205f;" horiz-adv-x="512" />
<glyph unicode="&#x2122;" d="M0 1024v256h512v-256h256v256h256v-768h-256v256h-256v-256h-256v512h-256z" />
<glyph unicode="&#xe000;" horiz-adv-x="1025" d="M0 1025h1025v-1025h-1025v1025z" />
<glyph unicode="&#xfb01;" horiz-adv-x="3072" d="M2048 0v768h256v-768h-256zM2048 1024v256h256v-256h-256zM256 512v256h256v512h512v-256h-256v-256h256v-256h-256v-512h-256v512h-256z" />
<glyph unicode="&#xfb02;" horiz-adv-x="3072" d="M2048 0v1280h256v-1280h-256zM256 512v256h256v512h512v-256h-256v-256h256v-256h-256v-512h-256v512h-256z" />
<glyph unicode="&#xfb03;" horiz-adv-x="4608" d="M3584 0v768h256v-768h-256zM3584 1024v256h256v-256h-256zM1792 512v256h256v512h512v-256h-256v-256h256v-256h-256v-512h-256v512h-256zM256 512v256h256v512h512v-256h-256v-256h256v-256h-256v-512h-256v512h-256z" />
<glyph unicode="&#xfb04;" horiz-adv-x="4608" d="M3584 0v1280h256v-1280h-256zM1792 512v256h256v512h512v-256h-256v-256h256v-256h-256v-512h-256v512h-256zM256 512v256h256v512h512v-256h-256v-256h256v-256h-256v-512h-256v512h-256z" />
</font>
</defs>
</svg>
